<?xml version="1.0" encoding="UTF-8"?>
<svg width="129px" height="102px" viewBox="0 0 129 102" version="1.1" xmlns="http://www.w3.org/2000/svg" xmlns:xlink="http://www.w3.org/1999/xlink">
    <!-- Generator: Sketch 46.2 (44496) - http://www.bohemiancoding.com/sketch -->
    <title>oyster-graphic@SVG</title>
    <desc>Created with Sketch.</desc>
    <defs></defs>
    <g id="Page-1" stroke="none" stroke-width="1" fill="none" fill-rule="evenodd">
        <g id="Artboard-2" transform="translate(-57.000000, -53.000000)">
            <g id="Group" transform="translate(67.000000, 60.000000)">
                <ellipse id="Oval-4-Copy-3" stroke="#6393EC" stroke-width="3.6" fill="#46599A" cx="55.5" cy="37.6395349" rx="30.5" ry="30.6395349"></ellipse>
                <path d="M64.011138,52.4106011 C64.7298911,52.0968702 65.4386886,51.7412854 66.1344472,51.3430277 C76.4812761,45.4204214 80.0263615,32.3032415 74.0526171,22.0449865 C68.0788726,11.7867314 54.8484339,8.27199368 44.501605,14.1946 C43.8058463,14.5928577 43.1408432,15.0236472 42.5074217,15.4839117 C52.4774549,11.1320587 64.3630766,14.8334192 69.9351246,24.4018716 C75.5071726,33.970324 72.7975113,46.0261394 64.011138,52.4106011 L64.011138,52.4106011 Z" id="Combined-Shape-Copy-18" fill="#FFFFFF" transform="translate(59.730951, 31.864090) rotate(-18.004755) translate(-59.730951, -31.864090) "></path>
                <ellipse id="Oval-4-Copy" stroke="#6393EC" stroke-width="3.6" fill="#46599A" cx="73.5" cy="55.6395349" rx="30.5" ry="30.6395349"></ellipse>
                <path d="M82.011138,70.4106011 C82.7298911,70.0968702 83.4386886,69.7412854 84.1344472,69.3430277 C94.4812761,63.4204214 98.0263615,50.3032415 92.0526171,40.0449865 C86.0788726,29.7867314 72.8484339,26.2719937 62.501605,32.1946 C61.8058463,32.5928577 61.1408432,33.0236472 60.5074217,33.4839117 C70.4774549,29.1320587 82.3630766,32.8334192 87.9351246,42.4018716 C93.5071726,51.970324 90.7975113,64.0261394 82.011138,70.4106011 L82.011138,70.4106011 Z" id="Combined-Shape-Copy-12" fill="#FFFFFF" transform="translate(77.730951, 49.864090) rotate(-18.004755) translate(-77.730951, -49.864090) "></path>
                <ellipse id="Oval-4-Copy-2" stroke="#6393EC" stroke-width="3.6" fill="#46599A" cx="30.5" cy="55.6395349" rx="30.5" ry="30.6395349"></ellipse>
                <path d="M39.011138,70.4106011 C39.7298911,70.0968702 40.4386886,69.7412854 41.1344472,69.3430277 C51.4812761,63.4204214 55.0263615,50.3032415 49.0526171,40.0449865 C43.0788726,29.7867314 29.8484339,26.2719937 19.501605,32.1946 C18.8058463,32.5928577 18.1408432,33.0236472 17.5074217,33.4839117 C27.4774549,29.1320587 39.3630766,32.8334192 44.9351246,42.4018716 C50.5071726,51.970324 47.7975113,64.0261394 39.011138,70.4106011 L39.011138,70.4106011 Z" id="Combined-Shape-Copy-17" fill="#FFFFFF" transform="translate(34.730951, 49.864090) rotate(-18.004755) translate(-34.730951, -49.864090) "></path>
                <path d="M33.5,0 L38,6 L29,6 L33.5,0 Z M33.5,12 L29,6 L38,6 L33.5,12 Z" id="Combined-Shape-Copy-16" fill="#FFFFFF"></path>
                <path d="M95.5,18 L99,22.5 L92,22.5 L95.5,18 Z M95.5,27 L92,22.5 L99,22.5 L95.5,27 Z" id="Combined-Shape-Copy-15" fill="#FFFFFF"></path>
                <path d="M3.5,6 L7,10.5 L0,10.5 L3.5,6 Z M3.5,15 L0,10.5 L7,10.5 L3.5,15 Z" id="Combined-Shape-Copy-14" fill="#FFFFFF"></path>
            </g>
        </g>
    </g>
</svg>